<?xml version="1.0" encoding="UTF-8"?>
<svg id="Layer_2" data-name="Layer 2" xmlns="http://www.w3.org/2000/svg" viewBox="0 0 412.62 144.87">
  <defs>
    <style>
      .cls-1 {
        fill: none;
      }

      .cls-2 {
        fill: #231f20;
      }
    </style>
  </defs>
  <g id="Layer_2-2" data-name="Layer 2">
    <g>
      <g>
        <path class="cls-2" d="m101.65,88.77v-1.08l2.95-.79c2.95-.79,3.38-1.3,3.38-7.42v-30.03c0-6.12-.43-6.62-3.38-7.42l-2.95-.79v-1.08h22.39v1.08l-4.1.86c-3.02.58-3.67,1.22-3.67,7.34v28.8c0,6.77.94,7.42,3.96,7.42h4.18c7.42,0,9.72-1.01,10.94-4.1l1.73-4.75,1.66.29-2.38,11.67h-34.71Z"/>
        <path class="cls-2" d="m158.89,89.85c-10.66,0-17.21-7.06-17.21-17.79s6.91-19.59,18.43-19.59c10.8,0,17.21,7.34,17.21,17.86s-7.34,19.51-18.43,19.51Zm-.58-34.85c-6.62,0-8.78,6.62-8.78,13.1s2.74,19.23,10.8,19.23c6.98,0,9.22-6.84,9.22-13.25s-3.02-19.08-11.23-19.08Z"/>
        <path class="cls-2" d="m195.03,89.13l-10.44-27.15c-2.02-5.04-2.38-5.83-3.89-6.34l-1.66-.65v-.94h16.63v.94l-2.52.72c-2.09.58-2.59,1.8-.58,7.56l5.11,14.19c.94,2.59,1.3,3.74,1.44,5.04h.14c.22-1.22.5-2.16,1.58-5.18l4.82-13.9c2.16-6.05,1.15-7.13-1.08-7.7l-2.52-.72v-.94h13.03v.94l-1.44.65c-1.44.65-2.02,1.3-3.89,6.34l-10.08,27.15h-4.68Z"/>
        <path class="cls-2" d="m231.1,89.64c-8.5,0-15.34-6.55-15.34-17.28,0-9.72,5.69-19.8,16.56-19.8,8.5,0,12.96,6.77,12.96,12.82,0,.5,0,1.01-.07,1.44h-23.55c-.43,8.79,4.03,16.71,13.54,16.71,4.39,0,7.7-1.51,9.5-2.88l.79,1.01c-4.18,4.39-7.78,7.99-14.4,7.99Zm.65-25.35c4.68,0,6.19-.65,6.19-3.02,0-2.66-2.95-5.76-7.42-5.76-5.62,0-8.5,4.75-8.86,8.78h10.08Z"/>
        <path class="cls-2" d="m265.02,89.64c-8.21,0-14.62-6.84-14.62-17.79,0-10.08,7.2-19.01,17.57-19.01,3.67,0,8.71,1.51,8.71,5.47,0,2.16-1.51,3.46-2.95,3.89l-.5-.29c-1.22-3.1-4.61-5.62-8.06-5.62-6.26,0-8.64,6.41-8.64,11.81,0,10.01,5.33,15.48,11.88,15.48,3.67,0,6.7-1.37,8.71-3.02l.79,1.08c-2.52,3.17-6.77,7.99-12.89,7.99Z"/>
        <path class="cls-2" d="m295.62,89.64c-8.21,0-14.62-6.84-14.62-17.79,0-10.08,7.2-19.01,17.57-19.01,3.67,0,8.71,1.51,8.71,5.47,0,2.16-1.51,3.46-2.95,3.89l-.5-.29c-1.22-3.1-4.61-5.62-8.06-5.62-6.26,0-8.64,6.41-8.64,11.81,0,10.01,5.33,15.48,11.88,15.48,3.67,0,6.7-1.37,8.71-3.02l.79,1.08c-2.52,3.17-6.77,7.99-12.89,7.99Z"/>
        <path class="cls-2" d="m334.07,88.77v-.94l2.52-.65c2.52-.72,2.88-1.08,2.88-6.34v-15.05c0-4.82-3.02-7.85-7.99-7.85-4.39,0-7.27,2.59-7.27,4.9v18c0,5.26.36,5.62,2.88,6.34l2.52.65v.94h-17.86v-.94l2.45-.65c2.52-.72,2.95-1.08,2.95-6.34v-36.29c0-5.26-.43-5.69-3.1-6.19l-2.81-.65v-.94l12.53-1.73.43.29v23.4h.07c2.95-2.81,6.12-5.62,11.31-5.62,6.77,0,10.94,4.18,10.94,11.02v16.71c0,5.26.43,5.62,2.95,6.34l2.45.65v.94h-17.86Z"/>
        <path class="cls-2" d="m355.23,88.77v-.94l2.45-.65c2.52-.72,2.95-1.08,2.95-6.34v-18.22c0-5.26-.43-5.69-3.1-6.19l-2.81-.65v-.94l12.53-1.73.43.29v27.43c0,5.26.36,5.62,2.88,6.34l2.52.65v.94h-17.86Zm8.86-44.5c-3.38,0-4.39-2.38-4.39-4.32s1.15-4.32,4.46-4.32c2.95,0,4.54,1.73,4.54,4.32,0,2.74-1.8,4.32-4.61,4.32Z"/>
        <path class="cls-2" d="m394.18,89.85c-10.66,0-17.21-7.06-17.21-17.79s6.91-19.59,18.43-19.59c10.8,0,17.21,7.34,17.21,17.86s-7.34,19.51-18.43,19.51Zm-.58-34.85c-6.62,0-8.78,6.62-8.78,13.1s2.74,19.23,10.8,19.23c6.98,0,9.22-6.84,9.22-13.25s-3.02-19.08-11.23-19.08Z"/>
      </g>
      <g>
        <path class="cls-2" d="m166.23,144v-1.08l2.95-.79c2.95-.79,3.38-1.3,3.38-7.42v-30.03c0-6.12-.43-6.62-3.38-7.42l-2.95-.79v-1.08h22.39v1.08l-4.1.86c-3.02.58-3.67,1.22-3.67,7.34v28.8c0,6.77.94,7.42,3.96,7.42h4.18c7.42,0,9.72-1.01,10.94-4.1l1.73-4.75,1.66.29-2.38,11.67h-34.71Z"/>
        <path class="cls-2" d="m232.4,144.72c-3.6,0-5.33-2.3-5.4-5.69h-.14c-2.38,2.3-5.76,5.83-10.94,5.83-4.32,0-8.71-3.24-8.71-8.28,0-8.28,7.7-10.37,19.23-12.6v-4.75c0-4.75-2.81-7.7-7.13-7.7-4.03,0-5.04,2.23-5.04,4.61v1.58l-.14.36c-.86.5-2.09.86-3.02.86-1.15,0-1.94-.58-1.94-1.94,0-2.23,2.38-4.68,4.18-5.91,2.38-1.66,5.47-3.02,8.86-3.02,8.21,0,11.23,4.97,11.23,11.74v15.48c0,4.03.58,5.9,3.31,5.9.94,0,2.02-.29,2.74-.65l.5,1.01c-1.58,1.51-4.9,3.17-7.56,3.17Zm-5.98-18.43c-10.08,1.51-12.02,4.39-12.02,8.21,0,3.31,2.95,5.4,6.05,5.4,3.67,0,5.98-2.3,5.98-4.46v-9.15Z"/>
        <path class="cls-2" d="m273.95,144.36l-7.92-20.52-7.63,20.52h-4.68l-10.44-27.15c-2.02-5.04-2.38-5.83-3.89-6.34l-1.66-.65v-.94h16.63v.94l-2.52.72c-2.09.58-2.59,1.8-.58,7.56l5.11,14.19c.94,2.59,1.3,3.74,1.44,5.04h.14c.22-1.22.5-2.16,1.58-5.18l4.68-13.39-.72-1.94c-1.87-5.04-2.38-5.83-3.89-6.34l-1.66-.65v-.94h16.63v.94l-2.52.72c-2.09.58-2.59,1.8-.58,7.56l5.11,14.19c.94,2.59,1.3,3.74,1.44,5.04h.14c.22-1.22.5-2.16,1.58-5.18l4.82-13.9c2.16-6.05,1.15-7.13-1.08-7.7l-2.52-.72v-.94h13.03v.94l-1.44.65c-1.44.65-1.94,1.3-3.89,6.34l-10.08,27.15h-4.68Z"/>
      </g>
      <g>
        <path class="cls-1" d="m60.92,109.37v7.11c0,6.25-.04,10.3-.14,12.93-.68-.95-1-2.15-.78-3.41.73-4.11.92-10.02.92-16.63Z"/>
        <path class="cls-2" d="m108.38,109.87l-5.08,25.39-1.75,8.74H0v-2.98l9.39-2.56c8.74-2.35,10.02-3.63,10.02-21.98V27.52c0-18.35-1.28-19.63-10.02-21.98L0,2.99V0h106.36v2.8l-12.59,2.4c-8.96,1.81-11.09,3.41-11.09,20.64v80.52c0,8.99.68,16.69,2.34,20.75.59,1.43-.32,3.03-1.86,3.26-4.33.67-9.81.96-16.81.96h-1.84c-1.55,0-2.91-.77-3.73-1.92.1-2.63.14-6.68.14-12.93V25.84c0-16.32-1.15-18.26-8.7-20.29-.27.06-.71.16-.71.16-8.32,1.87-10.34,3.99-10.34,21.81v85.76c0,20.05,2.99,21.98,11.74,21.98h13.44c9.09,0,15.62-.52,20.39-1.77,6.78-1.77,10.03-5.02,12.04-10.4l5.12-14.07,4.48.85Z"/>
        <path d="m60.92,109.37v7.11c0,6.25-.04,10.3-.14,12.93-.68-.95-1-2.15-.78-3.41.73-4.11.92-10.02.92-16.63Z"/>
        <path d="m145.4,109.02l-5.12,14.08c-3.41,9.17-5.64,12.16-27.62,12.16h-3.61c-.55,0-1.03.39-1.13.93l-1.4,7c-.08.42.24.82.67.82h35.86l6.83-34.14-4.48-.85Z"/>
      </g>
    </g>
  </g>
</svg>